<svg width="26" height="30" viewBox="0 0 26 30" fill="none" xmlns="http://www.w3.org/2000/svg">
<path d="M0 5.3306C0 2.38659 2.38659 7.62939e-06 5.33059 7.62939e-06C8.2746 7.62939e-06 10.6612 2.3866 10.6612 5.3306V10.6612H5.33059C2.38659 10.6612 0 8.2746 0 5.3306Z" fill="#007CFF"/>
<path d="M22.6612 5.33059C22.6612 8.2746 20.2746 10.6612 17.3306 10.6612L12 10.6612V5.33059C12 2.38659 14.3866 2.86102e-06 17.3306 2.86102e-06C20.2746 2.86102e-06 22.6612 2.38659 22.6612 5.33059Z" fill="#007CFF"/>
<path d="M0 17.3094C0 14.3654 2.38659 11.9788 5.33059 11.9788H10.6612V17.3094C10.6612 20.2534 8.2746 22.64 5.33059 22.64C2.38659 22.64 0 20.2534 0 17.3094Z" fill="#007CFF"/>
<path d="M15.28 19.736H17.896C18.712 19.736 19.36 19.52 19.84 19.088C20.32 18.64 20.56 18.048 20.56 17.312C20.56 16.56 20.32 15.968 19.84 15.536C19.376 15.088 18.728 14.864 17.896 14.864H15.28V19.736ZM18.304 22.592H15.256V29H11.944V11.984H18.304C19.968 11.984 21.312 12.48 22.336 13.472C23.376 14.464 23.896 15.736 23.896 17.288C23.896 18.84 23.376 20.112 22.336 21.104C21.312 22.096 19.968 22.592 18.304 22.592Z" fill="black"/>
</svg>
