<svg width="736" height="106" viewBox="0 0 736 106" fill="none" xmlns="http://www.w3.org/2000/svg">
<g filter="url(#filter0_d_4_10)">
<path d="M54.0395 53.76L42.6475 8.70399L31.2555 53.76H54.0395ZM80.5355 87.296V96H55.5755V87.296H62.4875L56.0875 61.824H29.2075L22.8075 87.296H29.8475V96H4.8875V87.296H12.9515L35.2235 -7.62939e-06H50.3275L72.2155 87.296H80.5355ZM146.024 87.168V96H127.464V81.28L105.32 95.232C102.674 96.5973 100.157 97.28 97.7675 97.28C95.4635 97.28 93.5862 96.4267 92.1355 94.72C90.7702 93.0133 90.0875 91.0507 90.0875 88.832V44.032C90.0875 40.1067 90.6848 37.4187 91.8795 35.968C93.9275 33.3227 97.1702 32 101.608 32H127.464V8.70399H119.016V-7.62939e-06H137.96V87.168H146.024ZM127.464 40.704H100.328V87.936L127.464 71.04V40.704ZM157.588 44.544C157.588 36.096 161.982 31.872 170.772 31.872H192.404C196.585 31.872 199.614 32.6827 201.492 34.304C203.369 35.9253 204.308 38.912 204.308 43.264V55.168L167.828 78.208V87.296H194.196V79.872H204.308V86.656C204.308 89.216 203.497 91.4347 201.876 93.312C200.34 95.104 197.737 96 194.068 96H167.828C164.158 96 161.513 95.104 159.892 93.312C158.356 91.4347 157.588 89.216 157.588 86.656V44.544ZM167.828 67.84L194.068 51.328V40.704H167.828V67.84ZM235.648 87.296H243.968V96H217.088V87.296H225.152V8.70399H217.088V-7.62939e-06H235.648V87.296ZM256.713 44.544C256.713 36.096 261.107 31.872 269.897 31.872H291.529C295.71 31.872 298.739 32.6827 300.617 34.304C302.494 35.9253 303.433 38.912 303.433 43.264V55.168L266.953 78.208V87.296H293.321V79.872H303.433V86.656C303.433 89.216 302.622 91.4347 301.001 93.312C299.465 95.104 296.862 96 293.193 96H266.953C263.283 96 260.638 95.104 259.017 93.312C257.481 91.4347 256.713 89.216 256.713 86.656V44.544ZM266.953 67.84L293.193 51.328V40.704H266.953V67.84ZM406.659 72.32H415.363V96H376.067C368.899 96 364.547 93.184 363.01 87.552C362.499 85.9307 362.243 84.1813 362.243 82.304V13.824C362.243 7.59466 364.419 3.41333 368.771 1.28C370.392 0.426661 372.397 -7.62939e-06 374.787 -7.62939e-06H415.363V23.68H406.659V8.70399H372.739V87.296H406.659V72.32ZM489.396 87.296V96H464.693V87.296H470.837V39.936L445.365 55.936V87.296H451.637V96H426.933V87.296H434.997V8.70399H426.933V-7.62939e-06H445.365V45.568L466.613 32.256C468.234 31.232 470.154 30.72 472.373 30.72C474.591 30.72 476.597 31.616 478.389 33.408C480.266 35.1147 481.205 37.5893 481.205 40.832V87.296H489.396ZM519.523 87.296H527.843V96H500.963V87.296H509.027V40.704H500.963V32H519.523V87.296ZM514.275 8.448C516.067 8.448 517.56 9.13066 518.755 10.496C520.035 11.776 520.675 13.3547 520.675 15.232C520.675 17.024 520.035 18.56 518.755 19.84C517.56 21.0347 516.024 21.632 514.147 21.632C512.355 21.632 510.819 21.0347 509.539 19.84C508.344 18.56 507.747 17.024 507.747 15.232C507.747 13.3547 508.387 11.776 509.667 10.496C510.947 9.13066 512.483 8.448 514.275 8.448ZM582.346 30.72C589.002 30.72 592.33 34.0053 592.33 40.576V87.296H600.521V96H575.818V87.296H581.962V39.68L556.49 55.68V87.296H562.762V96H538.058V87.296H546.122V40.576H538.058V32H556.49V45.312L577.738 32C579.103 31.1467 580.639 30.72 582.346 30.72ZM668.024 87.168V96H649.464V81.28L627.32 95.232C624.674 96.5973 622.157 97.28 619.768 97.28C617.464 97.28 615.586 96.4267 614.135 94.72C612.77 93.0133 612.088 91.0507 612.088 88.832V44.032C612.088 40.1067 612.685 37.4187 613.88 35.968C615.928 33.3227 619.17 32 623.608 32H649.464V8.70399H641.016V-7.62939e-06H659.96V87.168H668.024ZM649.464 40.704H622.328V87.936L649.464 71.04V40.704ZM731.172 87.296V96H686.628C682.276 96 679.332 95.1467 677.796 93.44C676.43 91.904 675.748 89.0027 675.748 84.736V80C675.748 76.928 676.132 74.8373 676.9 73.728C678.009 72.1067 680.526 70.1013 684.452 67.712L712.612 50.176V40.704H687.524V48.128H679.332V32H711.332C715.684 32 718.713 32.9387 720.42 34.816C722.212 36.6933 723.108 39.424 723.108 43.008V87.296H731.172ZM712.612 60.416L685.988 77.056V87.296H712.612V60.416Z" fill="white"/>
</g>
<defs>
<filter id="filter0_d_4_10" x="0.887497" y="0" width="734.284" height="105.28" filterUnits="userSpaceOnUse" color-interpolation-filters="sRGB">
<feFlood flood-opacity="0" result="BackgroundImageFix"/>
<feColorMatrix in="SourceAlpha" type="matrix" values="0 0 0 0 0 0 0 0 0 0 0 0 0 0 0 0 0 0 127 0" result="hardAlpha"/>
<feOffset dy="4"/>
<feGaussianBlur stdDeviation="2"/>
<feComposite in2="hardAlpha" operator="out"/>
<feColorMatrix type="matrix" values="0 0 0 0 0 0 0 0 0 0 0 0 0 0 0 0 0 0 0.25 0"/>
<feBlend mode="normal" in2="BackgroundImageFix" result="effect1_dropShadow_4_10"/>
<feBlend mode="normal" in="SourceGraphic" in2="effect1_dropShadow_4_10" result="shape"/>
</filter>
</defs>
</svg>
